<svg width="2998" height="1026" xmlns="http://www.w3.org/2000/svg" xmlns:svg="http://www.w3.org/2000/svg">
 <g>
  <title>Layer 1</title>
  <g id="svg_1">

   <g fill="#000000" id="SvgjsG1023"/>
   <g transform="matrix(68.5868, 0, 0, 68.5868, -5.48444, -335.214)" fill="#ffc100" id="SvgjsG1024">
    <path id="svg_2" d="m2.837183,4.884664c0.4,0 0.72,0.32 0.72,0.72l0,1.46c0,0.4 -0.32,0.72 -0.72,0.72l-2.060001,0c-0.38,0 -0.7,-0.32 -0.7,-0.72l0,-1.46c0,-0.4 0.32,-0.72 0.7,-0.72l2.060001,0zm8.939999,0c0.38,0 0.700001,0.32 0.700001,0.72l0,1.46c0,0.4 -0.320001,0.72 -0.700001,0.72l-4.02,0l0,11.360001c0,0.379999 -0.32,0.699999 -0.7,0.699999l-1.54,0c-0.4,0 -0.72,-0.32 -0.72,-0.699999l0,-13.540001c0,-0.4 0.32,-0.72 0.72,-0.72l6.26,0z"/>
   </g>
   <g transform="matrix(14.4113, 0, 0, 14.4113, 1055.29, 336.315)" fill="#ffc100" id="SvgjsG1025">
    <path id="svg_3" d="m2.074746,4.451086c0.4,0 0.72,0.32 0.72,0.72l0,1.46c0,0.4 -0.32,0.72 -0.72,0.72l-2.06,0c-0.38,0 -0.7,-0.32 -0.7,-0.72l0,-1.46c0,-0.4 0.32,-0.72 0.7,-0.72l2.06,0zm8.939997,0c0.38,0 0.700001,0.32 0.700001,0.72l0,1.46c0,0.4 -0.320001,0.72 -0.700001,0.72l-4.019997,0l0,11.360001c0,0.379999 -0.32,0.699999 -0.7,0.699999l-1.54,0c-0.4,0 -0.72,-0.32 -0.72,-0.699999l0,-13.540001c0,-0.4 0.32,-0.72 0.72,-0.72l6.259997,0zm13.060002,0c0.4,0 0.699999,0.32 0.699999,0.7l0,1.44c0,0.38 -0.299999,0.7 -0.699999,0.7l-7.560001,0l0,3.059998l6.68,0c0.4,0 0.700001,0.320001 0.700001,0.700001l0,1.46c0,0.379999 -0.300001,0.7 -0.700001,0.7l-6.68,0l0,3.080002l7.560001,0c0.4,0 0.699999,0.32 0.699999,0.700001l0,1.439999c0,0.380001 -0.299999,0.700001 -0.699999,0.700001l-9.760002,0c-0.38,0 -0.7,-0.32 -0.7,-0.700001l0,-13.28c0,-0.38 0.32,-0.7 0.7,-0.7l9.760002,0zm7.639999,3.22c-0.52,0.219999 -0.98,0.539999 -1.34,0.959999c-0.76,0.84 -1.120001,1.94 -1.120001,3.32s0.360001,2.48 1.120001,3.34c0.779999,0.880001 1.900009,1.300001 3.440006,1.300001c0.82,0 1.5,-0.199999 2.100002,-0.599999c0.619999,-0.420001 1.059998,-0.940001 1.360001,-1.640002c0.099998,-0.259999 0.359997,-0.42 0.639999,-0.42l1.579998,0c0.220001,0 0.440002,0.1 0.560001,0.280001c0.139999,0.2 0.18,0.42 0.099998,0.639999c-0.5,1.400002 -1.32,2.500002 -2.439999,3.300003c-1.200001,0.859999 -2.619999,1.299999 -4.240002,1.299999c-2.140007,0 -3.900005,-0.74 -5.240005,-2.219999c-1.240002,-1.400003 -1.880001,-3.180002 -1.880001,-5.280003s0.639999,-3.88 1.880001,-5.279999c1.34,-1.48 3.099998,-2.22 5.240005,-2.22c1.620003,0 3.040001,0.44 4.240002,1.3c1.119999,0.8 1.939999,1.92 2.439999,3.299999c0.080002,0.219999 0.040001,0.46 -0.099998,0.639999c-0.119999,0.18 -0.34,0.280001 -0.560001,0.280001l-1.579998,0c-0.280003,0 -0.540001,-0.160001 -0.639999,-0.42c-0.300003,-0.700001 -0.740002,-1.22 -1.360001,-1.639999c-0.600002,-0.4 -1.280003,-0.6 -2.100002,-0.6c-0.860001,0 -1.559998,0.12 -2.100006,0.36zm22.180008,-3.22c0.380001,0 0.68,0.32 0.68,0.7l0,13.28c0,0.380001 -0.299999,0.700001 -0.68,0.700001l-1.52,0c-0.380001,0 -0.68,-0.32 -0.68,-0.700001l0,-5.220001l-6.34,0l0,5.220001c0,0.380001 -0.32,0.700001 -0.700001,0.700001l-1.5,0c-0.379997,0 -0.700001,-0.32 -0.700001,-0.700001l0,-13.28c0,-0.38 0.320004,-0.7 0.700001,-0.7l1.5,0c0.380001,0 0.700001,0.32 0.700001,0.7l0,5.199998l6.34,0l0,-5.199998c0,-0.38 0.299999,-0.7 0.68,-0.7l1.52,0zm13.619987,7.419999c1.119995,0.72 1.739998,1.78 1.739998,3.059999c0,1.480001 -0.580002,2.620003 -1.700005,3.420002c-1.039993,0.720001 -2.479996,1.1 -4.259979,1.1c-2.02,0 -3.600002,-0.440001 -4.700001,-1.32c-1.02,-0.82 -1.600002,-1.98 -1.740002,-3.440002c-0.02,-0.2 0.040001,-0.4 0.18,-0.54s0.32,-0.22 0.52,-0.22l1.560001,0c0.379997,0 0.679996,0.280001 0.699997,0.64c0.040001,0.68 0.34,1.160001 0.98,1.540002c0.600002,0.34 1.460003,0.52 2.52,0.52c3.039986,0 3.039986,-1.200003 3.039986,-1.640002c0,-0.32 -0.120003,-0.52 -0.379997,-0.7c-0.380005,-0.26 -0.880005,-0.48 -1.480003,-0.66c-0.659981,-0.200001 -1.379982,-0.38 -2.139984,-0.56c-0.82,-0.18 -1.599998,-0.42 -2.299999,-0.7c-0.760002,-0.32 -1.420002,-0.72 -1.920002,-1.24c-0.579998,-0.58 -0.879997,-1.360001 -0.879997,-2.3c0,-1.299999 0.5,-2.379999 1.5,-3.199999c0.959999,-0.78 2.360001,-1.18 4.199997,-1.18s3.299988,0.44 4.359985,1.32c0.980003,0.8 1.520004,1.86 1.580002,3.139998c0.019997,0.18 -0.059998,0.38 -0.18,0.52c-0.139999,0.120001 -0.32,0.200001 -0.5,0.200001l-1.559998,0c-0.340004,0 -0.639999,-0.26 -0.68,-0.6c-0.060005,-0.52 -0.300003,-1.239998 -1.620003,-1.599998c-0.399998,-0.12 -0.919983,-0.18 -1.519985,-0.18s-1.099998,0.06 -1.48,0.2c-0.380001,0.12 -0.66,0.26 -0.84,0.42c-0.16,0.139999 -0.259998,0.279998 -0.299999,0.419999c-0.060001,0.2 -0.099998,0.42 -0.099998,0.639999c0,0.040001 0,0.160001 0.179996,0.34c0.200001,0.18 0.460003,0.360001 0.800003,0.48c0.399998,0.179999 0.859997,0.32 1.379997,0.44c0.540001,0.14 1.100002,0.280001 1.679989,0.42s1.159996,0.3 1.719994,0.48c0.600006,0.2 1.160004,0.46 1.640007,0.78zm17.68,-7.419999c0.379997,0 0.699997,0.32 0.699997,0.7l0,13.28c0,0.380001 -0.32,0.700001 -0.699997,0.700001l-1.5,0c-0.380005,0 -0.700005,-0.32 -0.700005,-0.700001l0,-8.960001l-3.68,4.719999c-0.119995,0.16 -0.32,0.26 -0.540001,0.26l0,0c-0.220001,0 -0.419998,-0.1 -0.540001,-0.26l-3.759995,-4.74l0,8.980001c0,0.380001 -0.32,0.700001 -0.700005,0.700001l-1.5,0c-0.379997,0 -0.699997,-0.32 -0.699997,-0.700001l0,-13.28c0,-0.38 0.32,-0.7 0.699997,-0.7l1.740005,0c0.219994,0 0.419998,0.1 0.559998,0.28l4.199997,5.559999l4.120003,-5.559999c0.120003,-0.18 0.339996,-0.28 0.559998,-0.28l1.740005,0zm6.139999,0c0.379997,0 0.699997,0.32 0.699997,0.7l0,13.28c0,0.380001 -0.32,0.700001 -0.699997,0.700001l-1.5,0c-0.380005,0 -0.700005,-0.32 -0.700005,-0.700001l0,-13.28c0,-0.38 0.32,-0.7 0.700005,-0.7l1.5,0zm14.079994,0c0.380005,0 0.68,0.32 0.68,0.7l0,1.44c0,0.38 -0.299995,0.7 -0.68,0.7l-3.939995,0l0,11.14c0,0.380001 -0.32,0.700001 -0.700005,0.700001l-1.5,0c-0.400002,0 -0.699997,-0.32 -0.699997,-0.700001l0,-11.14l-3.940002,0c-0.379997,0 -0.699997,-0.32 -0.699997,-0.7l0,-1.44c0,-0.38 0.32,-0.7 0.699997,-0.7l10.779999,0zm14.020004,0c0.379997,0 0.68,0.32 0.68,0.7l0,13.28c0,0.380001 -0.300003,0.700001 -0.68,0.700001l-1.520004,0c-0.379997,0 -0.68,-0.32 -0.68,-0.700001l0,-5.220001l-6.339996,0l0,5.220001c0,0.380001 -0.32,0.700001 -0.699997,0.700001l-1.5,0c-0.380005,0 -0.700005,-0.32 -0.700005,-0.700001l0,-13.28c0,-0.38 0.32,-0.7 0.700005,-0.7l1.5,0c0.379997,0 0.699997,0.32 0.699997,0.7l0,5.199998l6.339996,0l0,-5.199998c0,-0.38 0.300003,-0.7 0.68,-0.7l1.520004,0zm13.62001,7.419999c1.119995,0.72 1.73999,1.78 1.73999,3.059999c0,1.480001 -0.580002,2.620003 -1.699997,3.420002c-1.039993,0.720001 -2.479996,1.1 -4.259995,1.1c-2.020012,0 -3.600014,-0.440001 -4.700012,-1.32c-1.019997,-0.82 -1.599998,-1.98 -1.739998,-3.440002c-0.020004,-0.2 0.040001,-0.4 0.18,-0.54s0.32,-0.22 0.519997,-0.22l1.560005,0c0.379997,0 0.68,0.280001 0.699997,0.64c0.040001,0.68 0.340004,1.160001 0.980003,1.540002c0.599998,0.34 1.459991,0.52 2.520012,0.52c3.039993,0 3.039993,-1.200003 3.039993,-1.640002c0,-0.32 -0.119995,-0.52 -0.380005,-0.7c-0.37999,-0.26 -0.87999,-0.48 -1.479996,-0.66c-0.660004,-0.200001 -1.380005,-0.38 -2.139999,-0.56c-0.820015,-0.18 -1.600006,-0.42 -2.300011,-0.7c-0.759995,-0.32 -1.419998,-0.72 -1.919998,-1.24c-0.580002,-0.58 -0.879997,-1.360001 -0.879997,-2.3c0,-1.299999 0.5,-2.379999 1.5,-3.199999c0.959999,-0.78 2.360001,-1.18 4.200012,-1.18s3.299988,0.44 4.360001,1.32c0.979996,0.8 1.519989,1.86 1.579987,3.139998c0.020004,0.18 -0.059998,0.38 -0.179993,0.52c-0.139999,0.120001 -0.320007,0.200001 -0.5,0.200001l-1.559998,0c-0.339996,0 -0.639999,-0.26 -0.680008,-0.6c-0.059998,-0.52 -0.300003,-1.239998 -1.619995,-1.599998c-0.399994,-0.12 -0.919998,-0.18 -1.520004,-0.18s-1.099998,0.06 -1.480003,0.2c-0.379997,0.12 -0.660004,0.26 -0.840004,0.42c-0.159996,0.139999 -0.259995,0.279998 -0.299995,0.419999c-0.059998,0.2 -0.099998,0.42 -0.099998,0.639999c0,0.040001 0,0.160001 0.18,0.34c0.199997,0.18 0.459999,0.360001 0.799995,0.48c0.400002,0.179999 0.860008,0.32 1.380005,0.44c0.540009,0.14 1.100006,0.280001 1.680008,0.42s1.160004,0.3 1.720001,0.48c0.599991,0.2 1.159988,0.46 1.639999,0.78z"/>
   </g>
  </g>
 </g>
</svg>